# xmcd
#
# Track frame offsets: 
#        150
#        2290
#        16853
#        34255
#        49265
#
# Disc length: 930 seconds
#
# Revision: 0
# Processed by: cddbd v1.5.2PL0 Copyright (c) Steve Scherf et al.
# Submitted via: ExactAudioCopy v0.99pb5
#
DISCID=2d03a005
DTITLE=Sean McConnell - Tell The Truth EP
DYEAR=2007
DGENRE=Country
TTITLE0=Intro
TTITLE1=Real Good Man
TTITLE2=Tell The Truth
TTITLE3=Billy From Soddy Daisy
TTITLE4=Mr. Whoever You Are
EXTD=
EXTT0=
EXTT1=
EXTT2=
EXTT3=
EXTT4=
PLAYORDER=
